<?xml version="1.0" standalone="no"?>
<!DOCTYPE svg PUBLIC "-//W3C//DTD SVG 20010904//EN"
 "http://www.w3.org/TR/2001/REC-SVG-20010904/DTD/svg10.dtd">
<svg version="1.0" xmlns="http://www.w3.org/2000/svg"
 width="478.000000pt" height="316.000000pt" viewBox="0 0 478.000000 316.000000"
 preserveAspectRatio="xMidYMid meet">

<g transform="translate(0.000000,316.000000) scale(0.100000,-0.100000)"
fill="white" stroke="none">
<path d="M620 2754 c0 -4 39 -108 86 -233 84 -220 776 -2029 789 -2063 7 -16
27 -18 239 -18 l231 0 209 561 c116 308 213 554 216 547 4 -7 101 -259 216
-560 l209 -548 230 0 230 0 154 408 c84 224 280 738 434 1142 153 404 282 743
284 753 5 16 -16 17 -349 17 l-354 0 -51 -162 c-288 -921 -348 -1107 -354
-1101 -3 5 -86 264 -183 578 -98 314 -185 595 -195 625 l-18 55 -255 3 -255 2
-31 -97 c-17 -54 -107 -340 -199 -635 -92 -295 -171 -532 -174 -525 -6 9 -365
1136 -394 1235 l-6 22 -355 0 c-195 0 -354 -3 -354 -6z"/>
</g>
</svg>
