<?xml version="1.0" standalone="no"?>
<!DOCTYPE svg PUBLIC "-//W3C//DTD SVG 20010904//EN"
 "http://www.w3.org/TR/2001/REC-SVG-20010904/DTD/svg10.dtd">
<svg version="1.0" xmlns="http://www.w3.org/2000/svg"
 width="1016.000000pt" height="283.000000pt" viewBox="0 0 1016.000000 283.000000"
 preserveAspectRatio="xMidYMid meet">

<g transform="translate(0.000000,283.000000) scale(0.100000,-0.100000)"
fill="white" stroke="none">
<path d="M5720 2280 l0 -210 -80 0 -80 0 0 -175 0 -175 79 0 79 0 5 -347 c3
-310 6 -356 24 -418 66 -233 189 -327 449 -342 88 -5 109 -3 170 17 38 12 81
29 97 37 l27 14 0 174 c0 96 -1 175 -2 175 -2 0 -30 -14 -62 -30 -44 -22 -73
-30 -113 -30 -69 0 -102 18 -133 72 -25 43 -25 43 -28 361 l-3 317 170 0 171
0 0 175 0 175 -170 0 -170 0 0 210 0 210 -215 0 -215 0 0 -210z"/>
<path d="M3405 2089 c-180 -24 -357 -110 -469 -227 l-28 -30 23 -15 c56 -35
292 -167 298 -167 5 0 16 10 27 21 47 53 201 84 291 60 73 -20 133 -88 133
-151 0 -19 -6 -20 -159 -20 -201 0 -307 -18 -419 -70 -114 -54 -206 -145 -247
-245 -33 -81 -45 -218 -26 -304 45 -213 217 -322 506 -324 138 -1 214 19 298
79 l47 34 0 -50 0 -50 215 0 216 0 -3 557 -3 558 -31 66 c-43 91 -120 167
-214 212 -130 61 -304 87 -455 66z m275 -933 c0 -70 -4 -88 -23 -117 -46 -68
-117 -99 -230 -99 -120 0 -177 42 -177 133 0 82 46 136 135 158 17 4 90 7 163
8 l132 1 0 -84z"/>
<path d="M4722 2071 c-113 -33 -204 -85 -270 -155 -83 -90 -106 -150 -107
-281 0 -89 3 -106 27 -155 68 -139 227 -232 518 -306 108 -27 140 -39 158 -59
26 -31 28 -53 4 -81 -30 -38 -82 -57 -154 -58 -58 0 -76 5 -141 37 -45 23 -95
60 -128 93 l-54 54 -141 -141 -142 -142 61 -54 c153 -133 346 -212 518 -213
356 -1 609 211 586 490 -14 171 -127 278 -372 354 -44 13 -125 38 -180 55 -55
17 -115 40 -132 50 -96 60 -8 185 118 168 61 -8 156 -59 222 -118 l59 -52 136
136 136 136 -29 32 c-79 83 -246 177 -371 209 -98 25 -234 26 -322 1z"/>
<path d="M7265 2074 c-104 -22 -238 -91 -316 -163 -163 -149 -239 -351 -226
-604 10 -195 67 -340 184 -467 174 -188 453 -268 757 -214 166 29 312 104 395
203 l41 49 -142 131 -143 131 -39 -46 c-72 -84 -163 -124 -282 -124 -163 0
-300 103 -327 248 l-6 32 272 1 c149 0 382 1 516 1 l244 0 -6 121 c-8 148 -25
225 -76 331 -93 194 -271 330 -488 372 -95 18 -267 17 -358 -2z m344 -371 c59
-30 104 -83 120 -140 l10 -33 -284 0 -284 0 17 46 c23 62 94 126 164 147 79
25 186 16 257 -20z"/>
<path d="M8712 2071 c-113 -33 -204 -85 -270 -155 -83 -90 -106 -150 -107
-281 0 -89 3 -106 27 -155 15 -31 42 -71 60 -89 87 -89 264 -173 452 -215 120
-26 155 -42 175 -78 34 -61 -45 -120 -161 -122 -58 0 -76 5 -141 37 -45 23
-95 60 -128 93 l-54 54 -141 -141 -142 -142 61 -54 c153 -133 346 -212 518
-213 356 -1 609 211 586 490 -14 171 -127 278 -372 354 -44 13 -125 38 -180
55 -55 17 -115 40 -132 50 -96 60 -8 185 118 168 61 -8 156 -59 222 -118 l59
-52 136 136 136 136 -29 32 c-79 83 -246 177 -371 209 -98 25 -234 26 -322 1z"/>
<path d="M609 2048 c5 -13 81 -212 169 -443 158 -414 353 -923 367 -957 6 -16
23 -18 149 -18 l141 0 129 345 c71 190 133 342 137 338 3 -5 65 -160 135 -345
l129 -338 141 0 141 0 16 43 c9 23 131 345 272 715 140 370 255 675 255 677 0
3 -98 5 -218 5 l-218 0 -124 -395 c-68 -217 -125 -393 -126 -392 -1 1 -52 164
-113 362 -62 198 -117 375 -122 393 l-11 32 -160 -2 -161 -3 -120 -387 c-67
-213 -123 -385 -126 -382 -3 3 -59 177 -126 387 l-121 382 -222 3 -222 2 9
-22z"/>
</g>
</svg>
